<?xml version="1.0" encoding="utf-8"?>
<!-- Generator: Adobe Illustrator 16.0.0, SVG Export Plug-In . SVG Version: 6.00 Build 0)  -->
<!DOCTYPE svg PUBLIC "-//W3C//DTD SVG 1.1//EN" "http://www.w3.org/Graphics/SVG/1.1/DTD/svg11.dtd">
<svg version="1.1" id="Layer_1" xmlns="http://www.w3.org/2000/svg" xmlns:xlink="http://www.w3.org/1999/xlink" x="0px" y="0px"
	 width="1441px" height="480px" viewBox="0 0 1441 480" enable-background="new 0 0 1441 480" xml:space="preserve">
<title>Untitled-4</title>
<g id="Group_81">
	<g id="Group_50">
		<g id="Group_39">
			<circle id="Ellipse_17" fill="#9B9B9B" cx="618.716" cy="200.15" r="95.779"/>
		</g>
		<g id="Group_43">
			<g id="Group_40">
				<path id="Path_148" fill="#FAFAFA" d="M620.242,256.09h-3.744c-18.773,0.005-33.998-15.21-34.003-33.984
					c0-0.003,0-0.006,0-0.009v-28.013c0.005-2.606,2.117-4.718,4.724-4.723h62.294c2.608,0,4.724,2.115,4.724,4.723v28.013
					C654.236,240.87,639.017,256.09,620.242,256.09L620.242,256.09z"/>
			</g>
			<g id="Group_42">
				<g id="Group_41">
					<path id="Path_149" fill="#FAFAFA" d="M643.944,210.067h-50.467v-29.28c-0.271-13.936,10.806-25.454,24.741-25.726
						c13.937-0.271,25.454,10.806,25.726,24.742c0.007,0.328,0.007,0.656,0,0.984V210.067z M602.665,200.89h32.103v-20.112
						c-0.217-8.867-7.582-15.88-16.449-15.663c-8.563,0.209-15.454,7.101-15.663,15.663L602.665,200.89z"/>
				</g>
			</g>
		</g>
		<g id="Group_46">
			<g id="Group_44">
				<circle id="Ellipse_18" fill="#9B9B9B" cx="618.37" cy="213.734" r="7.786"/>
			</g>
			<g id="Group_45">
				<path id="Rectangle_48" fill="#9B9B9B" d="M614.473,217.814h7.786v11.779c0.026,2.121-1.672,3.861-3.792,3.888
					c-0.017,0-0.032,0-0.049,0l0,0c-2.146,0.005-3.892-1.731-3.897-3.878c0-0.003,0-0.006,0-0.009l0,0v-11.779H614.473z"/>
			</g>
		</g>
		<g id="Group_47">
			<path id="Path_150" fill="#FAFAFA" d="M619.397,114.854l2.524,7.786h8.189c0.396,0.005,0.715,0.324,0.72,0.72
				c-0.007,0.23-0.115,0.445-0.298,0.586l-6.624,4.8l2.535,7.776c0.119,0.382-0.091,0.789-0.471,0.912
				c-0.217,0.075-0.458,0.04-0.644-0.096l-6.624-4.8l-6.614,4.8c-0.326,0.236-0.781,0.163-1.018-0.163
				c-0.136-0.189-0.171-0.433-0.096-0.653l2.524-7.776l-6.614-4.8c-0.323-0.231-0.398-0.681-0.167-1.005
				c0.137-0.19,0.355-0.302,0.59-0.301h8.188l2.524-7.786c0.114-0.381,0.516-0.597,0.896-0.483c0.021,0.007,0.043,0.014,0.063,0.022
				C619.184,114.479,619.335,114.647,619.397,114.854z"/>
		</g>
		<g id="Group_48">
			<path id="Path_151" fill="#FAFAFA" d="M579.375,129.005l2.525,7.786h8.188c0.396,0.005,0.715,0.324,0.72,0.72
				c-0.002,0.231-0.112,0.448-0.298,0.586l-6.624,4.8l2.535,7.786c0.127,0.377-0.076,0.785-0.453,0.912
				c-0.224,0.076-0.471,0.036-0.661-0.106l-6.624-4.8l-6.614,4.8c-0.326,0.236-0.781,0.163-1.018-0.163
				c-0.136-0.186-0.171-0.426-0.096-0.643l2.524-7.786l-6.614-4.8c-0.295-0.229-0.366-0.646-0.163-0.96
				c0.138-0.185,0.354-0.295,0.586-0.297h8.246l2.524-7.786c0.137-0.379,0.555-0.576,0.935-0.439
				c0.204,0.074,0.365,0.234,0.438,0.439L579.375,129.005z"/>
		</g>
		<g id="Group_49">
			<path id="Path_152" fill="#FAFAFA" d="M660.706,129.005l2.525,7.786h8.179c0.397-0.005,0.725,0.313,0.729,0.71
				c0,0.003,0,0.006,0,0.009c-0.002,0.231-0.112,0.448-0.297,0.586l-6.624,4.8l2.524,7.786c0.126,0.377-0.079,0.785-0.456,0.91
				c-0.002,0.001-0.003,0.001-0.005,0.002c-0.219,0.068-0.457,0.029-0.644-0.106l-6.623-4.8l-6.615,4.8
				c-0.326,0.236-0.781,0.163-1.018-0.163c-0.135-0.186-0.171-0.426-0.096-0.643l2.525-7.786l-6.625-4.8
				c-0.292-0.232-0.358-0.649-0.153-0.96c0.138-0.185,0.354-0.295,0.586-0.297h8.179l2.535-7.786
				c0.118-0.379,0.522-0.591,0.902-0.472c0.02,0.006,0.038,0.013,0.058,0.021C660.48,128.675,660.629,128.82,660.706,129.005z"/>
		</g>
	</g>
	<g id="Group_51">
		<path id="Path_153" fill="#9B9B9B" d="M723.279,371.923c1.354,13.536,3.043,17.28,3.715,26.4s-7.459,9.85-18.979,15.245
			c-11.521,5.395-24.365,12.479-33.505,8.447c-9.139-4.031,12.183-13.92,18.24-28.963s4.733-21.12,4.733-21.12
			S715.157,362.448,723.279,371.923z"/>
	</g>
	<g id="Group_52">
		<rect id="Rectangle_49" x="697.896" y="417.965" fill="#E8E6E6" width="160.541" height="56.371"/>
	</g>
	<g id="Group_53">
		<path id="Path_154" fill="#9B9B9B" d="M651.375,390.365c2.035,12.182,2.534,15.734-5.577,28.425
			c-8.112,12.691-23.588,26.4-11.521,27.408s25.757-5.068,34.887-13.709c9.13-8.64,18.24-13.708,18.24-17.77
			c0-4.061-5.079-9.139-7.613-23.347l-3.772-10.561C676.019,380.813,672.179,392.391,651.375,390.365z"/>
	</g>
	<g id="Group_54">
		<path id="Path_155" fill="#E7A38A" d="M789.874,123.494c4.474,17.962,5.827,26.074,5.827,26.074s16.042,5.318,25.277-8.841
			L809.247,100.8L789.874,123.494z"/>
	</g>
	<g id="Group_55">
		<path id="Path_156" fill="#E7A38A" d="M759.855,54.807c-9.485,8.122-10.157,15.571-12.192,30.441c-2.035,14.87,0,20.985,0,20.985
			h5.636c0,0-2.257,20.304,11.279,27.072s35.875-1.354,46.022-17.597s14.87-39.254,4.724-51.389
			C805.177,52.186,759.855,54.807,759.855,54.807z"/>
	</g>
	<g id="Group_56">
		<path id="Path_157" fill="#17192D" d="M792.313,37.219c0,0-44.438,0.163-40.828,28.8c0,0,13.084-5.165,27.292,12.48
			c14.208,17.645,29.117,40.608,36.548,52.119c7.43,11.51,20.985,0,31.151-8.131c10.167-8.131,9.476-15.571-5.414-39.926
			C826.172,58.205,816.688,43.306,792.313,37.219z"/>
	</g>
	<g id="Group_57">
		<path id="Path_158" fill="#17192D" d="M793.676,45.341c2.707-14.218-0.682-15.571-3.389-26.4
			c-2.707-10.829,8.122-23.683,24.365-13.536s-1.354,22.339-9.476,31.814l-8.122,9.475L793.676,45.341z"/>
	</g>
	<g id="Group_58">
		<path id="Path_159" fill="#E7A38A" d="M808.988,98.985L802.287,86.4c0.979-4.009,4.934-6.543,8.985-5.76
			C818.818,81.975,824.972,96.441,808.988,98.985z"/>
	</g>
	<g id="Group_59">
		<path id="Path_160" fill="#545454" d="M783.855,237.053c-27.428-9.6-59.837-22.08-79.681-24.365
			c-19.843-2.285-34.56,15.235-30.451,45.687c4.109,30.451,5.578,109.65,18.778,121.833c0,0,19.123,3.053,35.961-4.569
			c0,0,6.721-9.13,7.681-32.486c0.96-23.357,0.509-66.999,0.509-66.999s58.301,39.984,89.846,12.682
			c31.546-27.302,9.197-61.929,9.197-61.929L783.855,237.053z"/>
	</g>
	<g id="Group_60">
		<path id="Path_161" d="M853.292,238.579c7.728,22.849,10.771,64.474-20.697,83.251c-31.47,18.778-62.947,8.641-96.96-5.577
			c-34.014-14.218-45.178-19.286-45.178-19.286s-3.553-3.053-3.053,6.086c0.499,9.14,8.131,68.025-7.613,88.32
			c-9.797,5.153-21.125,6.596-31.9,4.061c0,0-11.76-14.717-13.277-44.16c-1.517-29.443,0-111.677,37.565-109.143
			c37.564,2.535,104.572,24.874,104.572,24.874l15.226-36.048L853.292,238.579z"/>
	</g>
	<g id="Group_61">
		<path id="Path_162" fill="#17192D" d="M665.861,198.259l-16.521,12.403c0,0-4.569,5.578,2.534,11.155
			c7.104,5.578,33.005,24.682,33.005,24.682l19.296-20.112l-34.848-28.08C668.322,197.49,666.889,197.47,665.861,198.259z"/>
	</g>
	<g id="Group_62">
		<path id="Path_163" fill="#17192D" d="M753.289,106.253h16.319c0,0,12.816,16.925,32.641,11.155l3.302,4.713
			c0,0-9.226,11.942-31.545,17.625c-18.615,4.743-18.797-9.139-18.538-16.752c0,0,4.666-0.845,4.666-9.994h-6.884
			C753.25,113.001,752.175,112.013,753.289,106.253z"/>
	</g>
	<g id="Group_63">
		<path id="Path_164" fill="#FAFAFA" d="M667.695,394.358c-0.636,0-1.179-0.458-1.286-1.085c-6.222-36.07-6.998-72.87-2.305-109.171
			c1.181-9.188,3.024-13.892,6.308-16.224c2.429-1.729,5.664-2.094,10.176-1.143c9.36,1.977,56.506,16.377,84.672,24.959
			l3.092,0.961c28.713,8.774,36.738,8.803,47.712,0.23c0.571-0.441,1.392-0.344,1.843,0.221c0.449,0.564,0.355,1.386-0.209,1.834
			c-0.004,0.003-0.008,0.006-0.012,0.009l0,0c-12.394,9.706-22.33,8.708-50.093,0.24l-3.091-0.96
			c-28.119-8.592-75.197-22.963-84.48-24.912c-3.754-0.787-6.326-0.566-8.121,0.701c-2.593,1.834-4.157,6.153-5.223,14.4
			c-4.667,36.038-3.896,72.573,2.285,108.383c0.126,0.71-0.346,1.389-1.056,1.516c-0.004,0-0.007,0.001-0.011,0.002l0,0
			C667.831,394.34,667.764,394.353,667.695,394.358z"/>
	</g>
	<g id="Group_64">
		<path id="Path_165" d="M921.212,446.313c-0.005,18.599-15.078,33.676-33.677,33.687H689.967v-9.11h141.12
			c13.573,0,24.576-11.003,24.576-24.576s-11.003-24.576-24.576-24.576h-141.12v-9.11h197.568
			C906.132,412.644,921.201,427.717,921.212,446.313z"/>
	</g>
	<g id="Group_65">
		<rect id="Rectangle_50" x="762.543" y="333.677" fill="#E8E6E6" width="95.895" height="38.582"/>
	</g>
	<g id="Group_66">
		<path id="Path_166" fill="#9B9B9B" d="M802.287,439.095h25.229v24.374l-12.614-8.131l-12.614,8.131V439.095z"/>
	</g>
	<g id="Group_67">
		<path id="Path_167" fill="#A4AFDA" d="M687.75,242.592c-0.287,0.003-0.567-0.088-0.797-0.259l-35.521-27.082
			c-0.575-0.437-0.687-1.258-0.249-1.833s1.258-0.687,1.833-0.25l0,0l35.521,27.072c0.577,0.432,0.695,1.25,0.264,1.827
			c-0.002,0.002-0.003,0.004-0.005,0.007C688.546,242.398,688.16,242.59,687.75,242.592z"/>
	</g>
	<g id="Group_68">
		<path id="Path_168" fill="#E7A38A" d="M775.215,226.397c-5.577,13.2,3.955,16.244-17.76,13.718
			c-16.637-1.92-39.091-7.114-53.309-13.718c-14.218-6.605-17.28-11.674-21.321-8.64c-4.042,3.034,6.096,14.727,6.096,14.727
			s-12.691,2.025-18.787,0.509c-6.097-1.517-6.596,9.129,0,14.208c6.595,5.078,20.822,6.604,38.582,10.157
			c17.76,3.551,44.477,19.285,70.464,18.777c25.987-0.51,34.109-19.795,37.671-35.521L775.215,226.397z"/>
	</g>
	<g id="Group_69">
		<path id="Path_169" fill="#9B9B9B" d="M795.701,149.578c-14.889,22.339-27.744,85.286-27.744,85.286l53.021,18.951
			c0,0,27.984-6.26,37.439-8.967c9.456-2.707,8.641-8.169,3.389-27.753c-8.534-31.68-19.42-68.16-33.6-73.603
			c-14.179-5.443-7.209-2.765-7.209-2.765C813.572,146.011,804.801,149.08,795.701,149.578z"/>
	</g>
	<g id="Group_70">
		<path id="Path_170" fill="#9B9B9B" d="M626.156,6.557l13.008,13.018L626.156,32.64l-13.018-13.066L626.156,6.557 M626.156,0
			c-1.74-0.003-3.409,0.688-4.637,1.92l-13.018,13.018c-2.562,2.561-2.562,6.712-0.001,9.273c0,0,0,0,0.001,0l0,0l13.018,13.018
			c1.229,1.23,2.897,1.921,4.637,1.92l0,0c1.741-0.002,3.411-0.693,4.646-1.92l13.018-13.018c2.556-2.563,2.556-6.71,0-9.273l0,0
			L630.803,1.92C629.57,0.687,627.898-0.004,626.156,0z"/>
	</g>
	<g id="Group_71">
		<path id="Path_171" fill="#9B9B9B" d="M896.069,101.232c-0.538,0-1.069-0.132-1.546-0.384L874.595,90.24
			c-1.591-0.86-2.184-2.846-1.324-4.437c0.303-0.561,0.763-1.021,1.324-1.324l22.867-11.77c1.611-0.825,3.587-0.19,4.416,1.421
			c0.306,0.59,0.423,1.261,0.336,1.92l-2.938,22.397c-0.2,1.645-1.598,2.882-3.255,2.88L896.069,101.232z M883.196,87.36
			l10.224,5.453l1.508-11.52L883.196,87.36z"/>
	</g>
	<g id="Group_72">
		<path id="Path_172" fill="#9B9B9B" d="M902.655,203.424c-7.316,0-13.248-5.931-13.248-13.248c0-7.316,5.932-13.248,13.248-13.248
			s13.248,5.932,13.248,13.248l0,0C915.903,197.493,909.972,203.424,902.655,203.424z M902.655,183.504
			c-3.712,0-6.72,3.009-6.72,6.72s3.008,6.72,6.72,6.72c3.711,0,6.72-3.008,6.72-6.72l0,0
			C909.375,186.513,906.366,183.504,902.655,183.504z"/>
	</g>
	<g id="Group_75">
		<g id="Group_73">
			<path id="Path_173" fill="#9B9B9B" d="M599.055,413.645c-1.188,0.01-2.287-0.621-2.88-1.651l-11.126-19.354
				c-0.934-1.551-0.433-3.564,1.118-4.497c1.551-0.934,3.564-0.433,4.498,1.118c0.027,0.031,0.05,0.067,0.067,0.105l11.154,19.363
				c0.902,1.567,0.363,3.568-1.203,4.471c-0.002,0.001-0.004,0.002-0.006,0.003C600.184,413.487,599.625,413.639,599.055,413.645z"
				/>
		</g>
		<g id="Group_74">
			<path id="Path_174" fill="#9B9B9B" d="M583.801,409.536c-1.808,0.009-3.281-1.449-3.29-3.258
				c-0.006-1.18,0.624-2.271,1.648-2.857l19.354-11.155c1.525-0.98,3.557-0.539,4.537,0.986s0.539,3.557-0.986,4.537
				c-0.09,0.058-0.183,0.111-0.277,0.16l-19.354,11.154C584.937,409.39,584.373,409.538,583.801,409.536z"/>
		</g>
	</g>
	<g id="Group_76">
		<path id="Path_175" fill="#9B9B9B" d="M551.718,85.747c-3.161-0.194-6.236-1.104-8.995-2.659c-3.84-1.814-6.087-2.765-8.919-1.296
			c-1.559,0.92-3.567,0.402-4.487-1.157s-0.402-3.568,1.156-4.488c0.1-0.069,0.205-0.127,0.316-0.173
			c5.847-3.034,10.781-0.691,14.746,1.2c3.84,1.814,6.096,2.765,8.918,1.306c2.823-1.459,3.37-3.84,4.08-8.035
			c0.749-4.33,1.671-9.715,7.526-12.749c1.667-0.715,3.598,0.056,4.313,1.723c0.641,1.493,0.093,3.23-1.288,4.085
			c-2.88,1.459-3.369,3.84-4.08,8.035c-0.749,4.301-1.67,9.715-7.526,12.749C555.705,85.236,553.728,85.737,551.718,85.747z"/>
	</g>
	<g id="Group_77">
		<path id="Path_176" fill="#9B9B9B" d="M534.255,318.23c-0.736,0-1.471-0.058-2.198-0.173c-7.873-1.127-13.342-8.422-12.215-16.294
			c0.553-3.864,2.65-7.338,5.812-9.626c1.492-1.03,3.537-0.655,4.567,0.837c0.955,1.383,0.711,3.263-0.563,4.356l-0.115,0.087
			c-3.441,2.674-4.063,7.632-1.388,11.073c2.578,3.316,7.303,4.032,10.747,1.627c1.494-1.027,3.538-0.649,4.566,0.845
			c0.979,1.424,0.687,3.363-0.669,4.436C540.327,317.231,537.333,318.224,534.255,318.23z"/>
	</g>
	<g id="Group_78">
		<path id="Path_177" d="M917.362,353.472c-0.005,12.803-10.382,23.179-23.184,23.185H758.185v-6.278h76.628
			c9.342-0.008,16.909-7.587,16.901-16.929c-0.007-9.332-7.57-16.895-16.901-16.902h-76.618v-6.307h135.993
			c12.81,0.011,23.186,10.403,23.175,23.213C917.362,353.459,917.362,353.466,917.362,353.472z"/>
	</g>
	<g id="Group_79">
		<rect id="Rectangle_51" x="746.348" y="381.13" fill="#E8E6E6" width="81.639" height="28.665"/>
	</g>
	<g id="Group_80">
		<path id="Path_178" fill="#9B9B9B" d="M874.21,382.166v25.92c0,3.04-2.461,5.506-5.5,5.511H739.628v-5.511h50.063
			c2.121,0,3.841-1.719,3.841-3.84l0,0v-18.211c0-2.121-1.72-3.84-3.841-3.84h-50.063v-5.501h129.091
			C871.742,376.699,874.194,379.144,874.21,382.166z"/>
	</g>
</g>
</svg>
