<?xml version="1.0" encoding="utf-8"?>
<!-- Generator: Adobe Illustrator 16.0.0, SVG Export Plug-In . SVG Version: 6.00 Build 0)  -->
<!DOCTYPE svg PUBLIC "-//W3C//DTD SVG 1.1//EN" "http://www.w3.org/Graphics/SVG/1.1/DTD/svg11.dtd">
<svg version="1.1" id="Layer_1" xmlns="http://www.w3.org/2000/svg" xmlns:xlink="http://www.w3.org/1999/xlink" x="0px" y="0px"
	 width="1441px" height="480px" viewBox="0 0 1441 480" enable-background="new 0 0 1441 480" xml:space="preserve">
<title>Untitled-5</title>
<g id="Group_136">
	<g id="Group_82">
		<path id="Path_179" fill="#9B9B9B" d="M813.135,286.637l12.634,12.634l-12.634,12.634l-12.633-12.634L813.135,286.637
			 M813.135,280.271c-1.686,0-3.302,0.67-4.492,1.863l-12.634,12.633c-2.486,2.484-2.488,6.516-0.004,9.002
			c0.001,0.001,0.003,0.002,0.004,0.004l12.634,12.633c1.186,1.219,2.812,1.91,4.512,1.92l0,0c1.699-0.014,3.323-0.705,4.512-1.92
			l12.634-12.633c2.487-2.485,2.488-6.516,0.004-9.002c-0.001-0.001-0.003-0.002-0.004-0.004l-12.634-12.633
			c-1.197-1.195-2.82-1.865-4.512-1.863H813.135z"/>
	</g>
	<g id="Group_83">
		<path id="Path_180" fill="#9B9B9B" d="M888.966,231.619c-0.522,0.003-1.038-0.126-1.498-0.375l-19.354-10.31
			c-1.559-0.818-2.159-2.745-1.342-4.303c0.301-0.573,0.769-1.041,1.342-1.342l22.205-11.424c1.564-0.797,3.479-0.179,4.281,1.382
			c0.298,0.572,0.412,1.223,0.326,1.862l-2.88,21.744c-0.207,1.584-1.56,2.769-3.158,2.765H888.966z M876.485,218.179l9.927,5.29
			l1.459-11.155L876.485,218.179z"/>
	</g>
	<g id="Group_84">
		<path id="Path_181" fill="#9B9B9B" d="M667.205,69.485c-7.104,0.005-12.868-5.75-12.873-12.854s5.75-12.868,12.854-12.874
			s12.868,5.75,12.873,12.854c0,0.009,0,0.019,0,0.029c0,7.101-5.753,12.858-12.854,12.864V69.485z M667.205,50.141
			c-3.584,0-6.489,2.906-6.489,6.49s2.905,6.49,6.489,6.49c3.581,0,6.484-2.9,6.49-6.48l0,0
			C673.689,53.057,670.789,50.151,667.205,50.141z"/>
	</g>
	<g id="Group_85">
		<circle id="Ellipse_19" fill="#9B9B9B" cx="807.625" cy="105.494" r="105.024"/>
	</g>
	<g id="Group_88">
		<g id="Group_86">
			<path id="Path_182" fill="#9B9B9B" d="M603.5,134.89c-1.141,0.003-2.196-0.604-2.765-1.594l-10.8-18.787
				c-0.816-1.56-0.214-3.485,1.346-4.302c1.472-0.771,3.288-0.281,4.174,1.124l0,0l10.8,18.787c0.875,1.527,0.346,3.474-1.181,4.349
				C604.597,134.745,604.053,134.891,603.5,134.89z"/>
		</g>
		<g id="Group_87">
			<path id="Path_183" fill="#9B9B9B" d="M588.697,130.906c-1.756,0.015-3.19-1.395-3.205-3.15
				c-0.011-1.155,0.606-2.224,1.611-2.792l18.787-10.829c1.521-0.877,3.466-0.355,4.344,1.167c0.877,1.521,0.355,3.467-1.166,4.344
				l0,0l-18.787,10.838C589.799,130.761,589.253,130.907,588.697,130.906z"/>
		</g>
	</g>
	<g id="Group_89">
		<path id="Path_184" fill="#9B9B9B" d="M868.402,365.684c-3.063-0.188-6.043-1.068-8.717-2.573
			c-3.696-1.767-5.923-2.688-8.64-1.268c-1.564,0.797-3.478,0.175-4.274-1.39c-0.785-1.542-0.191-3.431,1.337-4.245
			c5.683-2.947,10.474-0.682,14.323,1.161c3.695,1.757,5.913,2.679,8.64,1.268s3.264-3.772,3.955-7.805
			c0.72-4.205,1.622-9.428,7.306-12.374c1.563-0.797,3.478-0.175,4.273,1.39c0.786,1.542,0.191,3.431-1.336,4.245
			c-2.746,1.421-3.273,3.772-3.965,7.805c-0.72,4.205-1.612,9.428-7.306,12.375C872.278,365.197,870.355,365.682,868.402,365.684z"
			/>
	</g>
	<g id="Group_90">
		<path id="Path_185" fill="#9B9B9B" d="M549.27,25.92c-7.741,0.018-14.03-6.242-14.049-13.983
			c-0.011-4.463,2.105-8.664,5.697-11.313c1.418-1.042,3.412-0.737,4.454,0.682c1.042,1.418,0.736,3.413-0.682,4.454
			c-3.214,2.768-3.576,7.617-0.809,10.831c2.478,2.876,6.684,3.512,9.899,1.496c1.359-1.119,3.368-0.923,4.486,0.436
			c1.119,1.359,0.924,3.368-0.436,4.486c-0.089,0.073-0.182,0.142-0.277,0.205C555.154,24.979,552.25,25.928,549.27,25.92z"/>
	</g>
	<g id="Group_91">
		<path id="Path_186" fill="#17192D" d="M612.485,204.48c-4.925-6.902-2.956-7.881-2.956-20.16c0-12.278-10.829-17.741-21.188-9.37
			c-10.358,8.372-9.36,18.24,2.467,23.655c11.827,5.414,13.306,1.968,17.28,10.829L612.485,204.48z"/>
	</g>
	<g id="Group_92">
		<path id="Path_187" fill="#E7A38A" d="M648.495,221.213c10.829,16.262,17.731,32.525,18.72,47.309
			c0.989,14.784-34.492,14.285-34.492,14.285s-58.771-10.436-40.406-45.821C610.681,201.6,648.495,221.213,648.495,221.213z"/>
	</g>
	<g id="Group_93">
		<path id="Path_188" fill="#E7A38A" d="M605.094,287.242c-2.468,12.316-2.957,16.262-2.957,16.262s10.839,11.376,31.047,2.957
			l-1.969-19.2L605.094,287.242z"/>
	</g>
	<g id="Group_94">
		<path id="Path_189" fill="#17192D" d="M636.63,201.504c13.314,3.446,20.284,5.174,17.279,14.285
			c-3.005,9.111-10.627,31.536-8.274,42.864c2.352,11.328,10.934,10.695,15.168,3.945l4.233-6.719c0,0,4.147-1.133,6.115,5.27
			c1.968,6.403,1.968,22.166,0,26.112s-16.263,4.935-30.548,2.957c0,0,7.393,6.413-9.359,6.413s-31.047,0-45.341-3.946
			c-14.295-3.945-13.824-12.364-10.368-37.478C578.991,230.093,594.735,199.536,636.63,201.504z"/>
	</g>
	<g id="Group_95">
		<path id="Path_190" fill="#E7A38A" d="M681.635,301.037c14.457-16.426,23.74-21.351,32.755-42.701s7.401-29.251,9.005-42.547
			c1.604-13.296,0.96-18.557,5.549-17.894c4.589,0.662,3.84,7.219,3.84,7.219c3.009,0.676,5.78,2.148,8.025,4.262
			c2.662,0.604,5.139,1.842,7.22,3.609c0,0,6.566-1.968,5.913,7.892c-0.652,9.859-3.312,77.529-44.006,107.098L681.635,301.037z"/>
	</g>
	<g id="Group_96">
		<path id="Path_191" fill="#9B9B9B" d="M872.175,467.098c4.745,0.566,9.54,0.566,14.285,0c6.902-0.96,9.859-3.619,9.36-18.807
			c-0.5-15.188-1.969-28.569-6.893-33.466c-4.926-4.896-6.903,3.495-8.871,13.345s-6.403,20.035-11.827,20.159
			C868.229,448.32,861.327,464.141,872.175,467.098z"/>
	</g>
	<g id="Group_97">
		<path id="Path_192" fill="#E7A38A" d="M562.095,349.661c-0.652,23.654-2.62,60.479-7.219,81.465
			c-4.599,20.986-9.85,38.112-9.85,38.112c-7.892,0-23.309,10.118-13.44,10.118c9.869,0,35.012,4.34,41.962-9.465
			c10.655-21.687,18.501-44.643,23.348-68.313c5.289-27.601-8.122-51.907-8.122-51.907L562.095,349.661z"/>
	</g>
	<g id="Group_98">
		<path id="Path_193" fill="#545454" d="M648.976,473.366c0,0,30.527-2.822,51.715-2.323s77.366-1.104,115.306-0.058
			c37.939,1.047,53.712,2.025,56.179-3.888c2.468-5.914,2.468-21.188-3.446-23.155c-5.913-1.968-37.948-8.87-78.355-13.315
			c-40.406-4.444-58.637-6.893-92.159-7.392c-33.523-0.499-69.485,3.312-72.433,25.065S648.976,473.366,648.976,473.366z"/>
	</g>
	<g id="Group_99">
		<path id="Path_194" fill="#9B9B9B" d="M803.189,452.313c1.968,10.349,0.49,11.702,0,18.423c-0.489,6.72,12.316,6.221,31.047,6.221
			c18.729,0,31.785,0.221,29.443-5.809c-2.343-6.028-4.32-2.572-19.594-9.965c-9.263-4.514-17.614-10.697-24.634-18.239
			L803.189,452.313z"/>
	</g>
	<g id="Group_100">
		<path id="Path_195" d="M602.137,414.825c1.92,14.333,10.829,58.686,40.905,58.686c30.077,0,48.077-9.37,71.348-34.493
			s27.196-38.4,30.652-32.045s15.274,26.611,34.493,38.928c19.219,12.317,21.888,17.741,33.6,10.829
			c11.713-6.912,12.711-9.85,7.776-23.645s-32.995-70.964-46.291-79.805c-13.296-8.842-36.183,6.412-60.221,21.187
			c-24.039,14.774-41.799,26.142-41.799,26.142L602.137,414.825z"/>
	</g>
	<g id="Group_101">
		<path id="Path_196" fill="#FAFAFA" d="M813.145,453.591c-0.43-0.001-0.83-0.218-1.065-0.576
			c-11.146-17.107-36.096-59.146-42.115-75.149c-1.92-5.106-3.609-7.68-5.491-8.217c-2.688-0.826-6.854,2.121-13.161,6.575
			c-2.208,1.565-4.704,3.322-7.536,5.213c-6.989,4.656-16.061,11.424-25.671,18.586c-14.774,11.002-30.058,22.387-39.955,27.792
			c-0.629,0.318-1.397,0.065-1.715-0.563c-0.303-0.599-0.091-1.33,0.486-1.674c9.754-5.318,24.96-16.646,39.657-27.6
			c9.601-7.181,18.739-13.968,25.786-18.662c2.803-1.862,5.289-3.619,7.479-5.165c7.171-5.068,11.52-8.121,15.359-6.94
			c2.756,0.845,4.887,3.763,7.133,9.763c5.942,15.84,30.769,57.601,41.856,74.649c0.386,0.589,0.223,1.379-0.365,1.767
			c-0.209,0.133-0.452,0.203-0.7,0.202H813.145z"/>
	</g>
	<g id="Group_102">
		<path id="Path_197" fill="#9B9B9B" d="M633.184,306.461c18.239-0.163,22.214,0.489,34.021-5.414
			c11.809-5.904,15.092-11.828,19.69-7.882c4.598,3.945,22.339,22.329,32.198,30.23c0,0,6.364,0-4.704,8.544
			c-11.069,8.544-23.549,10.56-28.8,27.59c-5.252,17.03-2.631,49.92-2.631,49.92s-44.063,17.751-86.111,6.586
			c0,0-12.26-35.52-15.639-44.679c-3.379-9.158-12.576-6.777-21.12-15.542s11.011-55.248,42.048-52.291
			C602.137,303.504,613.638,310.569,633.184,306.461z"/>
	</g>
	<g id="Group_103">
		<circle id="Ellipse_20" fill="#FAFAFA" cx="788.405" cy="59.587" r="19.219"/>
	</g>
	<g id="Group_104">
		<circle id="Ellipse_21" fill="#FAFAFA" cx="788.405" cy="120.691" r="19.219"/>
	</g>
	<g id="Group_105">
		<circle id="Ellipse_22" fill="#FAFAFA" cx="742.623" cy="98.026" r="19.219"/>
	</g>
	<g id="Group_110">
		<g id="Group_106">
			<path id="Rectangle_52" fill="#FFFFFF" d="M838.422,56.141h38.438c6.939,0,12.566,5.626,12.566,12.566l0,0
				c0,6.94-5.627,12.566-12.566,12.566h-38.438c-6.94,0-12.566-5.626-12.566-12.566l0,0
				C825.855,61.767,831.481,56.141,838.422,56.141z"/>
		</g>
		<g id="Group_107">
			<circle id="Ellipse_23" fill="#9B9B9B" cx="839.324" cy="68.707" r="8.544"/>
		</g>
		<g id="Group_108">
			<path id="Path_198" fill="#9B9B9B" d="M867.903,66.768h-12.816c-0.88,0-1.593-0.714-1.593-1.594s0.713-1.593,1.593-1.593h12.816
				c0.88,0,1.593,0.714,1.593,1.594C869.496,66.055,868.783,66.768,867.903,66.768z"/>
		</g>
		<g id="Group_109">
			<path id="Path_199" fill="#9B9B9B" d="M880.71,74.313h-25.623c-0.88,0-1.594-0.713-1.594-1.593
				c-0.001-0.88,0.713-1.594,1.593-1.594h0.001h25.623c0.88,0,1.594,0.713,1.594,1.593C882.305,73.6,881.591,74.313,880.71,74.313
				L880.71,74.313z"/>
		</g>
	</g>
	<g id="Group_115">
		<g id="Group_111">
			<path id="Rectangle_53" fill="#FFFFFF" d="M838.422,88.906h38.438c6.939,0,12.566,5.626,12.566,12.566l0,0
				c0,6.94-5.627,12.566-12.566,12.566h-38.438c-6.94,0-12.566-5.626-12.566-12.566l0,0
				C825.855,94.532,831.481,88.906,838.422,88.906z"/>
		</g>
		<g id="Group_112">
			<circle id="Ellipse_24" fill="#9B9B9B" cx="839.324" cy="101.472" r="8.544"/>
		</g>
		<g id="Group_113">
			<path id="Path_200" fill="#9B9B9B" d="M867.903,99.533h-12.816c-0.88,0-1.593-0.714-1.593-1.594c0-0.879,0.713-1.593,1.593-1.593
				h12.816c0.88,0,1.593,0.714,1.593,1.594C869.496,98.819,868.783,99.532,867.903,99.533z"/>
		</g>
		<g id="Group_114">
			<path id="Path_201" fill="#9B9B9B" d="M880.71,107.088h-25.623c-0.88,0-1.594-0.713-1.594-1.593
				c-0.001-0.88,0.713-1.594,1.593-1.594h0.001h25.623c0.88,0,1.594,0.713,1.594,1.593
				C882.305,106.374,881.591,107.088,880.71,107.088L880.71,107.088z"/>
		</g>
	</g>
	<g id="Group_120">
		<g id="Group_116">
			<path id="Rectangle_54" fill="#FFFFFF" d="M838.422,121.68h38.438c6.939,0,12.566,5.626,12.566,12.566l0,0
				c0,6.94-5.627,12.566-12.566,12.566h-38.438c-6.94,0-12.566-5.626-12.566-12.566l0,0
				C825.855,127.306,831.481,121.68,838.422,121.68z"/>
		</g>
		<g id="Group_117">
			<circle id="Ellipse_25" fill="#9B9B9B" cx="839.324" cy="134.246" r="8.544"/>
		</g>
		<g id="Group_118">
			<path id="Path_202" fill="#9B9B9B" d="M867.903,132.298h-12.816c-0.877-0.068-1.533-0.835-1.465-1.713
				c0.061-0.782,0.683-1.404,1.465-1.465h12.816c0.877-0.068,1.644,0.587,1.712,1.465c0.068,0.878-0.588,1.645-1.465,1.713
				C868.068,132.304,867.985,132.304,867.903,132.298z"/>
		</g>
		<g id="Group_119">
			<path id="Path_203" fill="#9B9B9B" d="M880.71,139.853h-25.623c-0.877,0.068-1.644-0.587-1.712-1.465s0.588-1.644,1.465-1.712
				c0.082-0.006,0.165-0.006,0.247,0h25.623c0.877-0.068,1.644,0.587,1.712,1.465c0.068,0.877-0.588,1.644-1.465,1.712
				C880.875,139.859,880.792,139.859,880.71,139.853z"/>
		</g>
	</g>
	<g id="Group_121">
		<path id="Rectangle_55" fill="#FAFAFA" d="M713.113,158.362h144.277c5.807,0,10.513,4.706,10.513,10.512l0,0
			c0,5.806-4.706,10.512-10.513,10.512H713.113c-5.807,0-10.513-4.707-10.513-10.512l0,0
			C702.601,163.068,707.307,158.362,713.113,158.362z"/>
	</g>
	<g id="Group_122">
		<circle id="Ellipse_26" cx="709.234" cy="168.874" r="28.963"/>
	</g>
	<g id="Group_125">
		<g id="Group_123">
			<path id="Path_204" fill="#FAFAFA" d="M709.234,185.75c-1.757,0-3.182-1.421-3.188-3.178l0,0v-27.398
				c0.036-1.76,1.492-3.157,3.252-3.121c1.643,0.034,2.99,1.311,3.113,2.948v27.571C712.412,184.328,710.989,185.75,709.234,185.75z
				"/>
		</g>
		<g id="Group_124">
			<path id="Path_205" fill="#FAFAFA" d="M722.934,172.051h-27.398c-1.758-0.097-3.104-1.6-3.008-3.357
				c0.09-1.623,1.385-2.918,3.008-3.007h27.398c1.758,0.097,3.104,1.6,3.008,3.357C725.852,170.667,724.557,171.962,722.934,172.051
				z"/>
		</g>
	</g>
	<g id="Group_128">
		<g id="Group_126">
			<path id="Path_206" fill="#9B9B9B" d="M742.335,106.752c-1.27,0.019-2.527-0.24-3.687-0.758c-1.87-0.84-3.31-2.418-3.975-4.358
				c-0.258-0.841,0.215-1.733,1.056-1.991c0.768-0.236,1.591,0.136,1.921,0.868l0,0c0.385,1.129,1.219,2.049,2.304,2.544
				c1.928,0.7,4.055,0.606,5.914-0.259c1.24-0.321,2.025-1.541,1.805-2.803c-0.25-1.209-1.536-2.563-4.396-2.506
				c-5.712,0.202-7.681-1.459-8.313-2.88c-0.592-1.521-0.156-3.25,1.084-4.31c2.912-2.869,7.162-3.908,11.069-2.708
				c0.795,0.369,1.142,1.312,0.772,2.107c-0.368,0.795-1.312,1.141-2.107,0.772l0,0l0,0c-2.654-0.598-5.434,0.157-7.421,2.016
				c-0.451,0.471-0.509,0.768-0.499,0.816c0.058,0.192,1.19,1.162,5.309,1.018c3.45-0.486,6.719,1.683,7.613,5.05
				c0.547,2.782-1.068,5.534-3.764,6.413C745.531,106.392,743.943,106.72,742.335,106.752z"/>
		</g>
		<g id="Group_127">
			<path id="Path_207" fill="#9B9B9B" d="M740.934,111.936c-0.875,0.005-1.588-0.7-1.594-1.574c0-0.003,0-0.007,0-0.01V85.699
				c0-0.88,0.714-1.594,1.594-1.594s1.594,0.714,1.594,1.594V110.4c0,0.875-0.709,1.584-1.584,1.584c-0.004,0-0.007,0-0.01,0
				V111.936z"/>
		</g>
	</g>
	<g id="Group_131">
		<g id="Group_129">
			<path id="Path_208" fill="#9B9B9B" d="M789.087,67.2c-1.268,0.017-2.525-0.238-3.687-0.749c-1.873-0.844-3.314-2.425-3.983-4.368
				c-0.251-0.843,0.229-1.731,1.072-1.982c0.778-0.232,1.606,0.159,1.923,0.907c0.383,1.13,1.217,2.052,2.304,2.544
				c1.923,0.708,4.048,0.618,5.904-0.25c1.245-0.326,2.028-1.557,1.795-2.822c-0.24-1.209-1.546-2.554-4.387-2.505
				c-5.712,0.201-7.681-1.459-8.313-2.88c-0.575-1.523-0.146-3.243,1.074-4.32c2.92-2.861,7.169-3.899,11.079-2.707
				c0.794,0.377,1.14,1.32,0.777,2.122c-0.367,0.794-1.309,1.14-2.103,0.772c-0.003-0.001-0.006-0.003-0.01-0.004l0,0
				c-2.653-0.603-5.433,0.149-7.42,2.006c-0.452,0.48-0.51,0.777-0.5,0.825c0.01,0.048,1.2,1.162,5.309,1.018
				c3.447-0.487,6.715,1.676,7.613,5.04c0.538,2.78-1.073,5.527-3.764,6.413C792.281,66.858,790.693,67.177,789.087,67.2z"/>
		</g>
		<g id="Group_130">
			<path id="Path_209" fill="#9B9B9B" d="M787.695,72.422c-0.88,0-1.594-0.713-1.594-1.594l0,0V46.176
				c-0.068-0.877,0.588-1.644,1.465-1.712c0.878-0.068,1.645,0.588,1.713,1.465c0.006,0.083,0.006,0.165,0,0.247v24.653
				c0.011,0.87-0.686,1.583-1.555,1.594C787.715,72.422,787.705,72.422,787.695,72.422z"/>
		</g>
	</g>
	<g id="Group_134">
		<g id="Group_132">
			<path id="Path_210" fill="#9B9B9B" d="M789.087,130.406c-1.269,0.009-2.524-0.249-3.687-0.758
				c-1.871-0.843-3.312-2.419-3.983-4.358c-0.273-0.836,0.184-1.736,1.02-2.01c0.8-0.261,1.664,0.144,1.976,0.925
				c0.394,1.124,1.234,2.034,2.323,2.516c1.923,0.708,4.048,0.618,5.903-0.25c1.245-0.321,2.032-1.547,1.806-2.813
				c-0.24-1.209-1.575-2.592-4.388-2.496c-5.712,0.183-7.68-1.469-8.313-2.88c-0.574-1.523-0.146-3.244,1.075-4.32
				c2.918-2.864,7.168-3.903,11.078-2.707c0.762,0.441,1.022,1.416,0.582,2.177c-0.386,0.666-1.191,0.962-1.916,0.703
				c-2.653-0.607-5.436,0.145-7.421,2.006c-0.451,0.48-0.509,0.778-0.499,0.826c0.058,0.192,1.199,1.143,5.309,1.008
				c3.45-0.486,6.719,1.682,7.613,5.049c0.542,2.781-1.071,5.531-3.764,6.413C792.303,130.049,790.705,130.378,789.087,130.406z"/>
		</g>
		<g id="Group_133">
			<path id="Path_211" fill="#9B9B9B" d="M787.695,135.6c-0.88,0-1.594-0.713-1.594-1.594l0,0v-24.663
				c0.068-0.877,0.835-1.533,1.713-1.465c0.782,0.061,1.404,0.683,1.465,1.465v24.653
				C789.284,134.877,788.575,135.595,787.695,135.6L787.695,135.6z"/>
		</g>
	</g>
	<g id="Group_135">
		<circle id="Ellipse_27" fill="#9B9B9B" cx="855.097" cy="168.874" r="6.403"/>
	</g>
</g>
</svg>
