<?xml version="1.0" encoding="utf-8"?>
<!-- Generator: Adobe Illustrator 16.0.0, SVG Export Plug-In . SVG Version: 6.00 Build 0)  -->
<!DOCTYPE svg PUBLIC "-//W3C//DTD SVG 1.1//EN" "http://www.w3.org/Graphics/SVG/1.1/DTD/svg11.dtd">
<svg version="1.1" id="Layer_1" xmlns="http://www.w3.org/2000/svg" xmlns:xlink="http://www.w3.org/1999/xlink" x="0px" y="0px"
	 width="1441px" height="480px" viewBox="0 0 1441 480" enable-background="new 0 0 1441 480" xml:space="preserve">
<title>Untitled-6</title>
<g id="Group_171">
	<g id="Group_137">
		<path id="Path_212" fill="#9B9B9B" d="M629.079,26.957c0,0,15.36-20.16,50.4-24.586c35.04-4.425,58.176,6.922,58.176,6.922
			c26.82,1.835,51.414,15.569,67.046,37.44c26.055,36.845,25.796,60.921,22.896,71.481s-23.348-20.103-67.065-31.93
			c-43.719-11.827-104.208,6.086-135.552,31.479c-31.345,25.392-36.212,38.486-44.381,25.027
			C572.43,129.331,567.63,52.435,629.079,26.957z"/>
	</g>
	<g id="Group_138">
		<path id="Path_213" fill="#545454" d="M746.833,54.663l-0.067,3.504C690.836,37.526,641.78,72.96,641.78,72.96l-1.92-4.051
			c0,0-64.791,37.095-53.386,79.181c6.297,0.96,14.89-11.213,38.496-30.346c31.334-25.392,91.843-43.287,135.552-31.469
			c39.897,10.79,60.413,37.257,65.895,33.753l1.171-1.843C825.352,57.264,746.833,54.663,746.833,54.663z"/>
	</g>
	<g id="Group_139">
		<path id="Path_214" fill="#17192D" d="M747.773,232.944c-0.127,0.014-0.256,0.014-0.384,0c-1.042-0.198-1.726-1.204-1.526-2.245
			c0.003-0.017,0.006-0.033,0.01-0.049l0,0l34.81-170.39c0.217-1.061,1.253-1.744,2.313-1.526s1.744,1.253,1.526,2.313l0,0
			L749.675,231.36C749.511,232.28,748.708,232.949,747.773,232.944z"/>
	</g>
	<g id="Group_140">
		<path id="Path_215" fill="#17192D" d="M687.582,223.584c-0.797,0.007-1.515-0.478-1.806-1.219L627.553,76.666
			c-0.397-0.997,0.088-2.127,1.085-2.525c0.997-0.397,2.127,0.088,2.524,1.085l0,0l58.225,145.699
			c0.402,0.981-0.065,2.103-1.047,2.506c-0.016,0.006-0.031,0.013-0.048,0.019C688.065,223.537,687.824,223.582,687.582,223.584z"/>
	</g>
	<g id="Group_141">
		<path id="Path_216" fill="#020202" d="M767.636,292.521c8.525,10.032,18.365,13.892,26.985,21.994c8.621,8.102,0,33.168,0,33.168
			l-59.654-1.863l-15.974-46.78L767.636,292.521z"/>
	</g>
	<g id="Group_142">
		<path id="Path_217" fill="#9B9B9B" d="M806.247,387.303c4.521,12.028,9.533,14.544,17.559,19.555
			c8.025,5.012,12.028,7.92-8.784,9.226c0,0-5.241,0.308-17.799-10.732c-12.557-11.04-3.014-17.511-3.014-17.511L806.247,387.303z"
			/>
	</g>
	<g id="Group_143">
		<path id="Path_218" fill="#9B9B9B" d="M878.986,6.48l12.864,12.854l-12.864,12.864l-12.854-12.864L878.986,6.48 M878.986,0
			c-1.724,0.005-3.375,0.696-4.589,1.92l-12.864,12.854c-2.526,2.53-2.526,6.628,0,9.158l12.864,12.864
			c1.211,1.229,2.864,1.92,4.589,1.92l0,0c1.721-0.007,3.368-0.697,4.579-1.92l12.854-12.864c2.529-2.524,2.532-6.621,0.008-9.15
			c-0.002-0.002-0.005-0.005-0.008-0.008L883.565,1.92C882.356,0.695,880.708,0.003,878.986,0z"/>
	</g>
	<g id="Group_144">
		<path id="Path_219" fill="#9B9B9B" d="M596.305,319.498c-0.528,0.001-1.05-0.128-1.517-0.375l-19.689-10.502
			c-1.591-0.814-2.221-2.764-1.406-4.354c0.31-0.605,0.802-1.098,1.406-1.406l22.589-11.626c1.586-0.821,3.539-0.202,4.36,1.385
			c0.306,0.59,0.422,1.259,0.334,1.917l-2.88,22.129c-0.217,1.61-1.591,2.813-3.217,2.813L596.305,319.498z M583.595,305.817
			l10.108,5.386l1.488-11.357L583.595,305.817z"/>
	</g>
	<g id="Group_145">
		<path id="Path_220" fill="#9B9B9B" d="M555.764,439.958c-7.231,0.021-13.111-5.823-13.133-13.056
			c-0.021-7.231,5.824-13.111,13.057-13.133c7.231-0.021,13.111,5.824,13.133,13.056c0,0.017,0,0.032,0,0.049l0,0
			C568.814,434.087,562.978,439.938,555.764,439.958z M555.764,420.278c-3.647,0-6.604,2.957-6.604,6.604
			c0,3.648,2.957,6.605,6.604,6.605c3.648,0,6.605-2.957,6.605-6.605C562.369,423.235,559.412,420.278,555.764,420.278
			L555.764,420.278z"/>
	</g>
	<g id="Group_148">
		<g id="Group_146">
			<path id="Path_221" fill="#9B9B9B" d="M871.643,158.89c-1.16-0.001-2.231-0.619-2.813-1.623l-11.05-19.123
				c-0.814-1.596-0.181-3.551,1.415-4.365c1.483-0.756,3.298-0.268,4.201,1.13l11.021,19.124c0.896,1.545,0.369,3.525-1.177,4.421
				c-0.494,0.287-1.056,0.437-1.627,0.437H871.643z"/>
		</g>
		<g id="Group_147">
			<path id="Path_222" fill="#9B9B9B" d="M856.57,154.829c-1.787-0.001-3.234-1.451-3.232-3.237c0-1.156,0.618-2.224,1.619-2.801
				L874.1,137.76c1.551-0.891,3.53-0.355,4.421,1.195s0.356,3.53-1.195,4.421l0,0l-19.123,11.021
				C857.707,154.686,857.144,154.834,856.57,154.829z"/>
		</g>
	</g>
	<g id="Group_149">
		<path id="Path_223" fill="#9B9B9B" d="M660.135,436.935c-1.949-0.012-3.868-0.488-5.597-1.393
			c-5.817-2.947-6.777-8.266-7.545-12.527c-0.739-4.1-1.296-6.48-4.1-7.901c-1.515-0.957-1.968-2.961-1.011-4.476
			c0.834-1.319,2.488-1.858,3.938-1.284c5.817,2.947,6.721,8.266,7.546,12.528c0.739,4.089,1.296,6.479,4.1,7.9
			c2.803,1.421,5.049,0.461,8.793-1.354c3.907-1.92,8.756-4.263,14.563-1.315c1.614,0.767,2.302,2.696,1.536,4.311
			c-0.767,1.614-2.696,2.303-4.311,1.536l-0.153-0.067c-2.804-1.421-5.05-0.461-8.794,1.354
			C666.359,435.82,663.291,436.74,660.135,436.935z"/>
	</g>
	<g id="Group_150">
		<path id="Path_224" fill="#E7A38A" d="M646.771,223.315c-19.555-0.5-48.633,3.753-59.174,4.886s-12.365,0-14.035-2.458
			c-1.671-2.458-4.013-6.72-4.013-6.72s-5.021-0.067-4.349,6.278c0.672,6.346-0.058,3.312-0.058,3.312s-6.624-1.632-7.681,2.708
			l-0.96,4.349c-0.94,2.357-0.94,4.986,0,7.343c-1.139,2.655-0.772,5.715,0.96,8.026c3.005,3.351,7.345,5.356,17.722,6.72
			c10.378,1.363,72.269,2.343,87.792,0L646.771,223.315z"/>
	</g>
	<g id="Group_151">
		<path id="Path_225" fill="#9B9B9B" d="M845.473,276.758c-7.884,0.008-14.281-6.377-14.288-14.262
			c-0.005-4.533,2.146-8.801,5.792-11.494c1.439-1.061,3.466-0.754,4.526,0.686s0.753,3.467-0.687,4.527l0,0
			c-3.475,2.563-4.215,7.459-1.65,10.934c2.563,3.476,7.459,4.215,10.934,1.651c1.474-1.021,3.495-0.653,4.516,0.819
			c0.945,1.365,0.708,3.224-0.551,4.307l-0.125,0.087C851.484,275.812,848.517,276.773,845.473,276.758z"/>
	</g>
	<g id="Group_152">
		<path id="Path_226" fill="#9B9B9B" d="M826.811,447.476c11.52,10.031,16.551,15.053,27.581,22.079
			c11.03,7.027,15.552,7.019,8.025,9.533c-7.526,2.516-20.765-0.509-28.935-4.013s-13.143-17.568-13.143-17.568L826.811,447.476z"/>
	</g>
	<g id="Group_153">
		<path id="Path_227" fill="#17192D" d="M762.355,232.944c-1.06,0-1.92-0.859-1.92-1.92c0.002-0.222,0.037-0.442,0.106-0.653
			L807.928,97.92c0.36-1.01,1.471-1.537,2.481-1.176c1.01,0.36,1.536,1.472,1.176,2.481L764.18,231.658
			C763.909,232.432,763.177,232.949,762.355,232.944z"/>
	</g>
	<g id="Group_154">
		<path id="Path_228" fill="#545454" d="M772.148,305.952c13.545-3.398,25.372,4.617,29.481,27.188
			c4.108,22.569,8.15,54.163,8.15,57.667s-8.132,7.027-8.132,7.027l-21.811-4.521c0,0-18.365-29.616-21.043-57.169
			C756.116,308.592,772.148,305.952,772.148,305.952z"/>
	</g>
	<g id="Group_155">
		<path id="Path_229" fill="#17192D" d="M711.697,106.637c-16.811,4.857-41.924,27.417-45.946,86.928c0,0-1.997,8.688,9.37,8.688
			c11.366,0,29.098,4.013,50.649,0s30.922-70.205,30.922-70.205s6.72-4.013,0-11.366
			C749.972,113.328,730.215,101.29,711.697,106.637z"/>
	</g>
	<g id="Group_156">
		<path id="Path_230" fill="#E7A38A" d="M756.692,132.039c4.013,16.051,4.685,44.16,4.685,58.176s-12.039,17.376-32.765,15.36v8.698
			c0,0-8.026,10.694-26.746,0V179.52c0,0-4.013,2.083-9.359-3.975c-5.348-6.058-1.345-19.43,10.694-19.43
			c0,0,9.715-8.016,22.579-20.055C738.645,124.022,756.692,132.039,756.692,132.039z"/>
	</g>
	<g id="Group_157">
		<path id="Path_231" fill="#17192D" d="M697.854,72.538c13.508-7.075,23.405,2.678,20.727,15.36s-3.715,17.386,0.48,24.077
			l-7.363,2.678c0,0,0.863-8.698-13.844-12.71S683.809,79.891,697.854,72.538z"/>
	</g>
	<g id="Group_158">
		<path id="Path_232" d="M691.854,312.787c-1.449,11.827-8.496,31.393,15.092,56.967c23.587,25.574,31.104,24.566,39.628,38.111
			c8.525,13.546,36.106,40.618,70.205,55.162c0,0,3.015,2.006,9.024-4.512c6.01-6.519,10.56-9.523,5.51-17.05
			c-5.049-7.526-14.246-24.067-29.683-43.623c-15.438-19.555-40.022-60.682-40.022-60.682l-1.018-19.929l-5.875-11.271
			L691.854,312.787z"/>
	</g>
	<g id="Group_159">
		<path id="Path_233" fill="#17192D" d="M719.061,146.083c17.577,2.516,34.051,3.514,40.607,0c5.105,1.649,8.29,6.725,7.555,12.039
			c-0.644,5.803-2.747,11.349-6.115,16.119c-2.229-0.917-4.331-2.12-6.249-3.581c-4.685-3.005-4.349-7.344-8.448-7.44
			c-5.567-0.115-6.768,7.094-15.792,11.021c-9.023,3.926-11.52,1.92-11.52,1.92c-4.91-2.634-8.526-7.166-10.003-12.538
			C705.813,153.926,708.98,147.091,719.061,146.083z"/>
	</g>
	<g id="Group_160">
		<path id="Path_234" fill="#A4AFDA" d="M721.46,174.086c-0.346,0.01-0.692-0.029-1.027-0.115l-0.067-0.048l-0.326-0.144
			c-4.213-2.35-7.295-6.305-8.544-10.963c-1.488-4.425-1.449-8.035,0.087-10.416c1.782-2.292,4.507-3.655,7.411-3.706
			c8.672,1.341,17.425,2.095,26.198,2.256c4.94,0.244,9.883-0.454,14.563-2.054c3.484,1.518,5.492,5.207,4.877,8.957
			c-0.529,4.607-2.035,9.048-4.416,13.027c-0.854-0.489-2.121-1.248-3.955-2.438c-1.378-0.94-2.531-2.172-3.379-3.609
			c-1.204-2.478-3.661-4.104-6.413-4.243h-0.183c-3.84,0-6.201,2.496-8.457,4.915c-2.238,2.696-5.053,4.855-8.237,6.317
			C727.057,173.104,724.293,173.874,721.46,174.086z"/>
	</g>
	<g id="Group_161">
		<path id="Path_235" fill="#9B9B9B" d="M701.856,213.619c-16.041,0.672-44.044,1.488-56.083,5.424c0,0-6.02,0.595-3.341,11.962
			c2.679,11.366,6.067,30.115,6.067,30.115s-2.007,4.013,9.36,3.351c11.366-0.662,26.659,0.066,26.659,0.066l3.11,46.733
			c0,0,12.893,7.344,47.386,0c34.492-7.345,38.938-13.958,38.938-13.958l-15.13-39.869c0,0,21.581,34.396,20.995,15.004
			c-0.586-19.391-15.11-53.414-15.11-53.414s-13.44-8.237-36.096-6.058C728.612,212.985,722.593,221.645,701.856,213.619z"/>
	</g>
	<g id="Group_162">
		<path id="Path_236" fill="#17192D" d="M674.17,215.261c0,0-1.986-3.312,3.37-3.648s10.051-0.663,12.211,3.014
			c2.16,3.677,8.007,33.6-5.28,49.92c0,0-1.584,3.754-6.269,0c0,0,3.677-9.772,3.341-27.158S674.17,215.261,674.17,215.261z"/>
	</g>
	<g id="Group_163">
		<path id="Path_237" fill="#17192D" d="M740.392,212.985c-1.009,7.68,0.662,35.069,18.384,44.438c0,0,1.584,0.25,2.88-2.266
			s1.008-3.254-1.507-6.518c-2.516-3.265-11.934-13.959-8.852-34.686c0,0-0.173-1.92-4.186-2.525
			C743.099,210.826,740.593,209.942,740.392,212.985z"/>
	</g>
	<g id="Group_164">
		<path id="Path_238" fill="#17192D" d="M707.838,184.531c-0.021,9.707,6.807,18.082,16.319,20.016
			c6.12,1.164,12.35,1.65,18.576,1.449c13.594-0.403,18.739-4.8,18.614-15.782l-0.134-11.021c-2.219-0.001-4.342-0.902-5.885-2.496
			c-2.007-2.525-13.757-6.202-20.756,2.832c-6.998,9.033-20.467,11.366-26.774,0.662L707.838,184.531z"/>
	</g>
	<g id="Group_165">
		<path id="Path_239" fill="#FAFAFA" d="M738.98,185.875c4.951,0.394,9.928,0.394,14.88,0c-0.511,3.803-3.614,6.73-7.44,7.018
			C739.643,193.565,738.98,185.875,738.98,185.875z"/>
	</g>
	<g id="Group_166">
		<path id="Path_240" fill="#17192D" d="M680.555,220.992c-0.613,0.004-1.191-0.285-1.556-0.778l-78.24-104.39
			c-0.668-0.841-0.528-2.063,0.313-2.731c0.84-0.668,2.063-0.528,2.731,0.312l0.058,0.086L682.1,217.92
			c0.658,0.832,0.517,2.039-0.314,2.697c-0.35,0.277-0.785,0.423-1.23,0.414V220.992z"/>
	</g>
	<g id="Group_167">
		<path id="Path_241" fill="#E7A38A" d="M779.818,176.688c-7.68,3.495-15.11,6.096-15.11,24.23s-3.255,63.513,7.44,74.88
			c10.694,11.366,30.768-3.351,29.424-28.09s-10.032-41.443-11.376-49.469c-0.807-5.758-1.028-11.583-0.663-17.386
			c0,0-5.174-1.334-6.595,6.019L779.818,176.688z"/>
	</g>
	<g id="Group_168">
		<path id="Path_242" fill="#9B9B9B" d="M776.688,301.008c0,0-15.302-3.216-22.828,19.095l9.235,19.479
			c0,0-6.989-27.005,6.557-33.015c13.545-6.01,24.96,7.949,24.96,7.949S787.939,302.295,776.688,301.008z"/>
	</g>
	<g id="Group_169">
		<path id="Path_243" fill="#FAFAFA" d="M809.262,453.283c-0.305,0.001-0.6-0.104-0.835-0.298l-25.143-21.063
			c-9.832-7.791-18.08-17.395-24.298-28.291c-3.103-5.78-7.186-10.978-12.067-15.359c-24.499-21.38-40.051-39.792-45.063-53.175
			c-0.299-0.65-0.015-1.42,0.635-1.72c0.65-0.3,1.42-0.016,1.72,0.635c0.025,0.056,0.048,0.114,0.065,0.173
			c4.867,12.998,20.208,31.027,44.352,52.128c5.07,4.552,9.324,9.938,12.576,15.927c6.074,10.647,14.134,20.033,23.741,27.647
			l25.142,21.063c0.555,0.453,0.636,1.27,0.183,1.824l0,0c-0.251,0.297-0.619,0.469-1.008,0.471V453.283z"/>
	</g>
	<g id="Group_170">
		<path id="Path_244" fill="#9B9B9B" d="M734.967,362.727c13.93-1.92,40.992-2.371,40.992-2.371s4.34-10.234-8.266-13.21
			c0,0-44.16-7.133-69.264,11.75c0,0-5.021,3.332-3.015,6.346c2.007,3.015,4.992,11.021,11.521,8.525
			C713.463,371.271,719.338,364.8,734.967,362.727z"/>
	</g>
</g>
</svg>
